HIERARCHY
ROOT Hips
{
	OFFSET -3.958830 18.904000 13.208200
	CHANNELS 6 Xposition Yposition Zposition Zrotation Yrotation Xrotation 
	JOINT LHipJoint
	{
		OFFSET 0.000000 0.000000 0.000000
		CHANNELS 3 Zrotation Yrotation Xrotation
		JOINT LeftUpLeg
		{
			OFFSET 1.800000 -1.400000 0.085000
			CHANNELS 3 Zrotation Yrotation Xrotation
			JOINT LeftLeg
			{
				OFFSET 2.215000 -6.000000 0.000000
				CHANNELS 3 Zrotation Yrotation Xrotation
				JOINT LeftFoot
				{
					OFFSET 2.500000 -6.900000 0.000000
					CHANNELS 3 Zrotation Yrotation Xrotation
					JOINT LeftToeBase
					{
						OFFSET 0.200000 -0.500000 1.950000
						CHANNELS 3 Zrotation Yrotation Xrotation
						End Site
						{
							OFFSET 0.000000 0.000000 0.000000
						}
					}
				}
			}
		}
	}
	JOINT RHipJoint
	{
		OFFSET 0.000000 0.000000 0.000000
		CHANNELS 3 Zrotation Yrotation Xrotation
		JOINT RightUpLeg
		{
			OFFSET -1.800000 -1.400000 0.085000
			CHANNELS 3 Zrotation Yrotation Xrotation
			JOINT RightLeg
			{
				OFFSET -2.215000 -6.000000 0.000000
				CHANNELS 3 Zrotation Yrotation Xrotation
				JOINT RightFoot
				{
					OFFSET -2.500000 -6.900000 0.000000
					CHANNELS 3 Zrotation Yrotation Xrotation
					JOINT RightToeBase
					{
						OFFSET -0.200000 -0.500000 1.950000
						CHANNELS 3 Zrotation Yrotation Xrotation
						End Site
						{
							OFFSET 0.000000 0.000000 0.000000
						}
					}
				}
			}
		}
	}
	JOINT LowerBack
	{
		OFFSET 0.000000 0.000000 0.000000
		CHANNELS 3 Zrotation Yrotation Xrotation
		JOINT Spine
		{
			OFFSET -0.087000 1.940000 -0.288900
			CHANNELS 3 Zrotation Yrotation Xrotation
			JOINT Spine1
			{
				OFFSET 0.000000 1.950000 0.060000
				CHANNELS 3 Zrotation Yrotation Xrotation
				JOINT Neck
				{
					OFFSET 0.000000 0.000000 0.000000
					CHANNELS 3 Zrotation Yrotation Xrotation
					JOINT Neck1
					{
						OFFSET 0.000000 1.600000 0.340000
						CHANNELS 3 Zrotation Yrotation Xrotation
						JOINT Head
						{
							OFFSET 0.000000 1.667000 -0.240000
							CHANNELS 3 Zrotation Yrotation Xrotation
							End Site
							{
								OFFSET 0.000000 0.000000 0.000000
							}
						}
					}
				}
				JOINT LeftShoulder
				{
					OFFSET 0.000000 0.000000 0.000000
					CHANNELS 3 Zrotation Yrotation Xrotation
					JOINT LeftArm
					{
						OFFSET 2.700000 1.550000 -0.730000
						CHANNELS 3 Zrotation Yrotation Xrotation
						JOINT LeftForeArm
						{
							OFFSET 5.450000 0.000000 0.000000
							CHANNELS 3 Zrotation Yrotation Xrotation
							JOINT LeftHand
							{
								OFFSET 3.450000 0.000000 0.000000
								CHANNELS 3 Zrotation Yrotation Xrotation
								JOINT LeftHandIndex1
								{
									OFFSET 0.750000 0.000000 0.000000
									CHANNELS 3 Zrotation Yrotation Xrotation
									End Site
									{
										OFFSET 0.000000 0.000000 0.000000
									}
								}
							}
						}
					}
				}
				JOINT RightShoulder
				{
					OFFSET 0.000000 0.000000 0.000000
					CHANNELS 3 Zrotation Yrotation Xrotation
					JOINT RightArm
					{
						OFFSET -2.700000 1.550000 -0.730000
						CHANNELS 3 Zrotation Yrotation Xrotation
						JOINT RightForeArm
						{
							OFFSET -5.450000 0.000000 0.000000
							CHANNELS 3 Zrotation Yrotation Xrotation
							JOINT RightHand
							{
								OFFSET -3.450000 0.000000 0.000000
								CHANNELS 3 Zrotation Yrotation Xrotation
								JOINT RightHandIndex1
								{
									OFFSET -0.750000 0.000000 0.000000
									CHANNELS 3 Zrotation Yrotation Xrotation
									End Site
									{
										OFFSET 0.000000 0.000000 0.000000
									}
								}
							}
						}
					}
				}
			}
		}
	}
}
MOTION
Frames: 10
Frame Time: 0.016667
-0.465690 17.988000 -0.634150 -12.714790 2.213269 -9.348378 -15.042333 12.845414 1.607060 16.392571 -0.184625 -13.581071 -1.711346 6.721346 21.586683 -0.559723 4.857831 2.868818 0.284780 0.069100 0.001310 18.470244 -8.995406 5.389453 -17.008158 8.174257 -29.096036 62.349556 -51.376821 50.421193 -3.167773 -13.413285 0.240762 0.047380 0.385190 0.026750 -4.022613 -2.646146 -8.536198 5.238041 -2.595782 24.312997 -4.869801 -0.847593 6.850214 -1.348924 -7.761456 -12.250873 -26.050066 12.659488 58.350170 11.406020 -3.969570 -10.181520 -10.140849 -8.929374 3.932587 -43.388915 -11.158835 -3.971734 -65.478597 -38.281971 18.060383 -3.488370 3.116105 0.802560 -0.126640 0.076780 0.254210 13.303826 14.411738 7.059188 53.182168 8.431692 -9.524139 39.092096 34.134572 6.701825 2.194084 -1.206737 -0.329740 0.584260 0.170960 -0.056310 
-0.476060 18.015270 -0.641190 -13.387801 2.513572 -9.702074 -15.001358 12.859031 1.546059 16.282648 -0.112127 -12.979474 -0.980778 6.381004 20.993731 -0.568552 4.723418 2.923929 0.292470 0.085280 -0.007260 18.505121 -9.053767 5.394959 -15.659825 8.176581 -29.085178 64.839273 -53.410668 50.149006 -3.211894 -13.417309 0.252118 0.051280 0.384770 0.026940 -4.132117 -2.558860 -8.506969 6.055970 -2.888949 24.820225 -5.460876 -0.978917 6.748300 -1.391514 -7.981845 -12.420974 -27.018491 13.101168 58.437191 12.177370 -4.268320 -10.798740 -10.418043 -9.287869 3.956665 -42.805816 -11.270579 -4.062243 -65.726166 -38.650585 18.351353 -3.478508 3.112631 0.811110 -0.138800 0.088470 0.260240 13.626428 14.703177 7.276406 52.950568 7.933390 -9.993288 39.718970 34.987980 7.002494 2.191456 -1.204740 -0.322520 0.592460 0.170440 -0.046350 
-0.494510 18.034580 -0.646380 -14.508304 2.820125 -9.808303 -14.950084 12.843447 1.474218 16.364978 -0.103104 -12.796072 0.031791 6.015710 20.585261 -0.617840 4.629424 2.961880 0.259180 0.039910 -0.042170 18.558677 -9.097904 5.416886 -13.538284 8.274252 -29.885338 68.262804 -56.887113 50.176976 -3.245400 -13.496221 0.259638 0.042450 0.413390 0.012450 -4.283095 -2.444372 -8.477534 7.374923 -3.331398 24.867348 -6.264516 -1.163681 6.447909 -1.391271 -8.207353 -12.542642 -27.942357 13.790902 58.272719 12.507250 -4.350080 -10.115730 -10.918724 -9.566035 3.961459 -42.423465 -11.281852 -4.019468 -65.375208 -39.069284 18.485669 -3.509624 3.091683 0.815000 -0.122080 0.052490 0.248090 14.052527 14.802178 7.407080 52.688691 7.450975 -10.193460 39.878489 35.248659 7.107490 2.168701 -1.186665 -0.352930 0.608500 0.208810 -0.056680 
-0.507600 18.046480 -0.643750 -15.554489 3.187084 -10.250373 -14.914176 12.951964 1.368353 15.880259 -0.013698 -12.272784 2.327532 5.255446 20.166446 -0.654586 4.441448 3.055719 0.229000 -0.010240 -0.057010 18.583370 -9.199464 5.397574 -10.945425 8.286739 -29.496711 70.209425 -59.272922 50.354098 -3.269891 -13.538822 0.253962 0.021380 0.434850 0.008750 -4.371219 -2.426169 -8.412370 8.449195 -3.798121 25.277785 -6.796560 -1.386229 6.051996 -1.244903 -8.587902 -12.795644 -29.352502 14.319201 57.831684 12.240130 -4.594490 -9.550710 -12.177966 -10.015421 4.042144 -41.843646 -10.686845 -4.324824 -65.481368 -39.760576 18.873746 -3.523107 3.073216 0.827090 -0.118790 0.036860 0.242690 15.018562 15.279679 7.766671 51.473410 6.335946 -10.775093 40.947798 36.065064 7.550543 2.165290 -1.181038 -0.376980 0.620810 0.231410 -0.060200 
-0.509600 18.040610 -0.638220 -16.616629 3.268244 -10.620847 -14.857541 13.018961 1.252472 15.290780 0.114775 -11.692740 4.869371 4.452801 19.766017 -0.671198 4.250232 3.141833 0.222660 -0.014760 -0.067840 18.639092 -9.332587 5.369496 -8.442505 8.430369 -28.885511 71.473564 -60.370118 50.165515 -3.275365 -13.546688 0.258899 0.020940 0.443270 0.003540 -4.532568 -2.273314 -8.321044 10.142824 -4.241374 25.447719 -7.670024 -1.529082 5.718455 -1.180473 -8.883956 -12.664560 -30.287499 14.750961 57.080137 12.203110 -4.631290 -9.353530 -13.106895 -9.880426 3.755674 -41.486390 -10.942894 -4.107605 -64.703228 -39.085060 18.320494 -3.532938 3.069290 0.816770 -0.114470 0.025310 0.242420 15.693059 15.031748 7.792006 50.584510 5.562476 -10.990333 42.015666 36.446949 7.943298 2.164210 -1.192667 -0.378660 0.623200 0.236560 -0.055840 
-0.513040 18.019350 -0.627850 -17.210674 3.266867 -10.746179 -14.826704 13.038884 1.150066 14.440401 0.175640 -11.478002 7.190881 3.761091 19.807790 -0.680632 4.143516 3.181753 0.205720 -0.042900 -0.091270 18.680733 -9.356341 5.433801 -6.696299 8.912019 -29.053713 70.595397 -62.065359 52.231650 -3.328723 -13.807370 0.198569 0.006510 0.451780 0.023950 -4.635707 -2.189926 -8.283256 11.150010 -4.559405 25.545735 -8.502499 -1.662003 5.310842 -1.006692 -9.121535 -12.599330 -30.762857 15.087137 55.990267 11.925800 -4.523420 -8.807360 -13.553892 -9.495240 3.622517 -41.877125 -10.670505 -4.192303 -63.860913 -38.957973 17.917388 -3.553620 3.095692 0.804920 -0.099440 0.009340 0.236160 15.713281 14.619437 7.783325 50.230301 4.924016 -11.149376 43.907784 36.904187 8.603172 2.159090 -1.224317 -0.371620 0.597080 0.257900 -0.055440 
-0.513080 17.998510 -0.614760 -17.274279 3.191782 -11.029773 -14.822153 13.034661 1.077197 13.675773 0.233631 -11.204229 8.650357 3.352652 20.055209 -0.694290 4.139515 3.192269 0.185900 -0.082590 -0.100100 18.698946 -9.293499 5.546831 -5.634960 9.600038 -29.259161 67.755849 -63.759419 56.043332 -3.430934 -14.236735 0.095778 -0.011300 0.465780 0.039680 -4.665157 -2.193948 -8.294912 11.335427 -4.816339 26.071195 -9.013827 -1.858723 4.845643 -0.847363 -9.381872 -12.550484 -31.233625 15.369469 54.968036 11.804260 -4.454380 -9.113190 -14.028359 -9.057044 3.577396 -42.450170 -9.855764 -4.647235 -63.138725 -39.250648 17.648654 -3.568817 3.087464 0.820870 -0.094700 0.004140 0.227220 15.856171 14.282796 7.717049 50.002516 4.525209 -11.339284 45.230696 37.350587 9.143845 2.155064 -1.222430 -0.382900 0.598250 0.282630 -0.061230 
-0.504050 17.976690 -0.617160 -17.364601 2.542079 -11.289965 -14.815123 12.994620 1.013366 13.703155 0.312143 -11.262137 9.041534 3.354822 20.958853 -0.716464 4.272346 3.142270 0.149720 -0.151510 -0.097450 18.713995 -9.177103 5.713102 -6.035753 10.419013 -29.803915 64.012170 -65.527045 60.842481 -3.555166 -14.761549 -0.033466 -0.042520 0.475970 0.056300 -4.685441 -2.186825 -8.354213 11.666118 -5.124919 27.025747 -9.696912 -2.022325 4.322560 -0.410572 -9.531135 -12.721889 -31.219259 15.471533 54.387039 11.212010 -4.206280 -9.699600 -14.727187 -9.162804 3.776160 -42.713725 -8.277442 -5.640717 -63.036171 -40.246495 17.801707 -3.588879 3.052025 0.859850 -0.092760 0.004620 0.201060 15.709756 14.539140 7.866167 49.851298 4.347876 -11.652423 46.694488 37.951240 9.734851 2.151253 -1.196457 -0.409960 0.607310 0.321560 -0.081980 
-0.488700 17.946130 -0.623110 -17.368634 1.984477 -11.351076 -14.809791 12.922856 0.959911 13.833063 0.378032 -11.578627 8.905550 3.499039 21.850283 -0.699909 4.342266 3.104596 0.160220 -0.139840 -0.087350 18.729062 -9.038729 5.893077 -7.270033 11.215379 -30.743448 60.136264 -66.836534 65.591499 -3.701619 -15.318956 -0.163213 -0.042660 0.451870 0.062960 -4.707401 -2.157256 -8.424826 12.146177 -5.327264 28.031023 -10.123243 -2.101258 3.682217 -0.088537 -9.731341 -12.542930 -31.087284 15.175242 53.413922 10.907570 -4.195350 -10.674590 -15.087185 -8.510727 3.574172 -43.512281 -7.600636 -6.128248 -62.897540 -40.539732 17.784438 -3.567200 3.068331 0.867390 -0.110500 0.020630 0.199580 15.379673 14.148019 7.728800 49.545657 4.244574 -11.601316 47.714797 37.718835 9.990445 2.162994 -1.211739 -0.397700 0.592770 0.312870 -0.082840 
-0.463780 17.914700 -0.636650 -17.469914 1.157586 -11.264074 -14.765985 12.843432 0.941394 14.112741 0.386366 -12.223899 8.381592 3.795739 23.337147 -0.670292 4.447637 3.047872 0.191150 -0.094130 -0.063250 18.775086 -9.053591 5.950375 -8.648460 11.627168 -31.251983 59.129321 -66.002226 66.092100 -3.727996 -15.378538 -0.169839 -0.029880 0.413100 0.047510 -4.829017 -1.924502 -8.429799 13.613676 -5.695308 28.823356 -11.242278 -2.133331 3.284346 0.269775 -9.939520 -12.397023 -31.102036 14.848716 52.643438 11.078310 -4.383290 -12.186190 -15.599230 -8.061152 3.382678 -43.622294 -6.789215 -6.636334 -63.935119 -40.710297 18.213806 -3.524019 3.074246 0.872960 -0.141140 0.042920 0.202620 15.059262 13.858083 7.700372 49.698653 3.890363 -11.848984 48.911172 37.949861 10.361300 2.176175 -1.224729 -0.379100 0.589610 0.282040 -0.081810 
